<?xml version="1.0" encoding="UTF-8"?>
<svg version="1.1" xmlns="http://www.w3.org/2000/svg" width="512" height="512">
<path d="M0 0 C6.27721216 3.20331961 12.19257614 8.35507216 14.4609375 15.16015625 C15.27402867 24.09254357 14.97428092 31.77517783 9.4609375 39.16015625 C5.99073882 42.16015625 5.99073882 42.16015625 3.4609375 42.16015625 C3.7909375 51.40015625 4.1209375 60.64015625 4.4609375 70.16015625 C6.8740625 70.67578125 9.2871875 71.19140625 11.7734375 71.72265625 C18.90578733 73.41798508 26.32265362 75.65174175 31.4609375 81.16015625 C31.7421875 84.38671875 31.7421875 84.38671875 31.4609375 87.16015625 C32.0286084 87.16950195 32.5962793 87.17884766 33.18115234 87.18847656 C47.66473658 87.47809146 62.06145583 88.41146525 76.4854126 89.7208252 C78.32642029 89.887116 80.16785538 90.0487489 82.00970459 90.20544434 C105.03783768 92.18434694 122.85856907 99.00723063 140.4609375 114.16015625 C141.47414063 115.01867187 141.47414063 115.01867187 142.5078125 115.89453125 C152.51122707 125.1357809 159.52599205 137.45539919 165.5859375 149.48046875 C165.90941162 150.11484863 166.23288574 150.74922852 166.56616211 151.40283203 C167.35083922 152.94392503 168.12727055 154.48921079 168.90234375 156.03515625 C170.86005305 158.7043138 172.24361248 159.13642489 175.3984375 160.03515625 C186.04721506 163.55179499 195.13380521 168.68601865 200.8359375 178.53515625 C201.75820638 182.40868555 201.61629708 186.19848693 201.4609375 190.16015625 C202.1209375 190.16015625 202.7809375 190.16015625 203.4609375 190.16015625 C203.4609375 207.65015625 203.4609375 225.14015625 203.4609375 243.16015625 C202.8009375 243.16015625 202.1409375 243.16015625 201.4609375 243.16015625 C201.5434375 244.31515625 201.6259375 245.47015625 201.7109375 246.66015625 C201.70015865 252.75020898 199.14386235 257.06924962 195.3984375 261.72265625 C189.40384577 266.69689194 181.57236323 273.16015625 173.4609375 273.16015625 C173.4609375 273.82015625 173.4609375 274.48015625 173.4609375 275.16015625 C171.8109375 275.16015625 170.1609375 275.16015625 168.4609375 275.16015625 C168.1103125 276.37703125 167.7596875 277.59390625 167.3984375 278.84765625 C163.57050115 290.20683482 156.93274499 299.90189566 149.4609375 309.16015625 C148.83574219 309.95164062 148.21054687 310.743125 147.56640625 311.55859375 C142.09362508 318.12593115 135.50178372 323.35750304 128.4609375 328.16015625 C127.8002124 328.61132812 127.1394873 329.0625 126.45874023 329.52734375 C118.26486967 334.77479729 109.26413548 338.16966561 100.2734375 341.78515625 C98.52650976 342.49474833 96.77976736 343.20479687 95.03320312 343.9152832 C83.92683056 348.42035091 72.77014426 352.78655569 61.57620239 357.06863403 C49.91886114 361.53114945 38.41257091 366.31013398 26.91772461 371.17260742 C25.97231812 371.57249878 25.97231812 371.57249878 25.0078125 371.98046875 C24.06723999 372.37842651 24.06723999 372.37842651 23.10766602 372.78442383 C13.21846897 376.96099756 3.26523799 380.98237283 -6.68701172 385.00585938 C-9.28668706 386.05801355 -11.8839422 387.11588674 -14.48046875 388.17578125 C-15.85405988 388.73333607 -17.22774743 389.29065345 -18.6015625 389.84765625 C-19.72691406 390.30527344 -20.85226563 390.76289063 -22.01171875 391.234375 C-24.5390625 392.16015625 -24.5390625 392.16015625 -26.5390625 392.16015625 C-26.8690625 377.31015625 -27.1990625 362.46015625 -27.5390625 347.16015625 C-36.975 346.72703125 -36.975 346.72703125 -46.6015625 346.28515625 C-77.37486126 344.79884983 -77.37486126 344.79884983 -91.5390625 343.16015625 C-92.67682129 343.02883301 -93.81458008 342.89750977 -94.98681641 342.76220703 C-98.71631547 342.31640111 -102.44019545 341.83817285 -106.1640625 341.34765625 C-107.30270752 341.20666504 -108.44135254 341.06567383 -109.61450195 340.92041016 C-133.56230584 337.56859322 -154.12047698 323.15734557 -168.92871094 304.39990234 C-183.5390625 284.34325604 -183.5390625 284.34325604 -183.5390625 275.16015625 C-184.7765625 275.09828125 -186.0140625 275.03640625 -187.2890625 274.97265625 C-197.87068672 273.76000544 -209.03378586 268.26129813 -216.19921875 260.3203125 C-222.16008835 251.82216313 -221.83639922 240.81195093 -221.76953125 230.84375 C-221.76907303 229.70664078 -221.76861481 228.56953156 -221.7681427 227.39796448 C-221.76514117 225.01049751 -221.75731856 222.62303212 -221.74487305 220.2355957 C-221.72659573 216.60425796 -221.72436396 212.97317591 -221.72460938 209.34179688 C-221.71969353 207.0091124 -221.71386492 204.67642964 -221.70703125 202.34375 C-221.70591843 201.27056015 -221.7048056 200.1973703 -221.70365906 199.09165955 C-221.57932714 179.11936069 -221.57932714 179.11936069 -214.5390625 171.16015625 C-208.68283813 165.50861545 -202.02308724 162.18778444 -194.5390625 159.16015625 C-193.70890625 158.78503906 -192.87875 158.40992188 -192.0234375 158.0234375 C-189.37038607 157.10154384 -187.32630403 157.00088531 -184.5390625 157.16015625 C-183.90291016 155.72736328 -183.90291016 155.72736328 -183.25390625 154.265625 C-171.61683964 128.44682638 -153.62331426 106.47883983 -126.5390625 96.16015625 C-115.5649413 92.87177258 -104.65484381 91.18300959 -93.2890625 90.03515625 C-91.72684374 89.86923151 -90.16466984 89.70288391 -88.60253906 89.53613281 C-74.60653291 88.06798253 -60.58639212 87.00423126 -46.5390625 86.16015625 C-46.25933594 85.22429687 -45.97960937 84.2884375 -45.69140625 83.32421875 C-44.21940581 79.28245483 -42.14825032 77.30266217 -38.5390625 75.16015625 C-31.70628062 72.00819185 -26.19145019 71.01042155 -18.5390625 70.16015625 C-18.5390625 61.25015625 -18.5390625 52.34015625 -18.5390625 43.16015625 C-20.1890625 42.50015625 -21.8390625 41.84015625 -23.5390625 41.16015625 C-25.26953125 39.35546875 -25.26953125 39.35546875 -26.7265625 37.28515625 C-27.45939453 36.26808594 -27.45939453 36.26808594 -28.20703125 35.23046875 C-32.36608946 28.76624338 -32.4839294 22.7692614 -31.5390625 15.16015625 C-28.61745442 7.86133465 -23.25187706 3.95807984 -16.68359375 0.05859375 C-11.5516312 -2.09140878 -5.21402756 -1.72463988 0 0 Z " fill="#D0D2D3" transform="translate(265.5390625,59.83984375)"/>
<path d="M0 0 C0.6670269 -0.00159245 1.3340538 -0.00318489 2.02129364 -0.00482559 C21.95352514 -0.04500539 41.7447867 0.53744631 61.625 2.125 C62.67526367 2.20777191 63.72552734 2.29054382 64.80761719 2.37582397 C75.28645031 3.22309061 85.71294702 4.30757976 96.1171875 5.82421875 C97.34436996 6.00087822 97.34436996 6.00087822 98.59634399 6.18110657 C111.08378482 8.10678154 120.61252006 15.17200393 128.34326172 25.02441406 C136.03214378 35.64253396 140.38349915 46.05903324 141.75 59.125 C141.87141357 60.24229492 141.99282715 61.35958984 142.11791992 62.51074219 C144.4463547 86.16541106 146.1223422 114.82785373 137 137.3125 C136.51273437 138.57320313 136.51273437 138.57320313 136.015625 139.859375 C131.00458318 151.26131074 121.74553886 161.15711767 111 167.3125 C110.09894531 167.83585938 109.19789063 168.35921875 108.26953125 168.8984375 C80.05300961 181.10199883 36.7919341 176.81473305 6.56811523 176.70361328 C1.87433198 176.68651055 -2.81894079 176.69670955 -7.51270676 176.71395016 C-99.31354317 176.99841709 -99.31354317 176.99841709 -119.71484375 157.6640625 C-128.29958712 148.82984796 -135.0871169 138.00459465 -137.0625 125.6875 C-137.21847656 124.74648438 -137.37445313 123.80546875 -137.53515625 122.8359375 C-139.04846724 111.36529456 -139.24235089 99.99193334 -139.25 88.4375 C-139.25067474 87.52408844 -139.25134949 86.61067688 -139.25204468 85.66958618 C-139.22200839 60.10084776 -137.65040015 38.60901891 -119.3125 19.125 C-105.47687518 5.85366804 -90.16243527 5.30269365 -72.02807617 3.50756836 C-69.46531493 3.2527655 -66.90358157 2.98902786 -64.34179688 2.72460938 C-42.90582549 0.55153549 -21.53984318 0.04198509 0 0 Z " fill="#061942" transform="translate(256,187.6875)"/>
<path d="M0 0 C0 13.86 0 27.72 0 42 C-3.1453125 42.09796875 -6.290625 42.1959375 -9.53125 42.296875 C-30.51092683 42.99251594 -51.42623458 43.83409912 -72.3125 46 C-73.12509277 46.08358765 -73.93768555 46.16717529 -74.77490234 46.2532959 C-79.85673927 46.78340998 -84.93014845 47.36567809 -90 48 C-91.24297852 48.15412354 -92.48595703 48.30824707 -93.76660156 48.46704102 C-107.41473814 50.34033357 -117.44075065 57.15739396 -126 68 C-138.5732775 85.76968879 -139.36231735 105.84966787 -139.26074219 126.9206543 C-139.24999442 129.56387171 -139.26072629 132.20641196 -139.2734375 134.84960938 C-139.29177665 158.3706627 -137.12135326 181.38656241 -120.1875 199.3125 C-111.60685568 207.41183159 -101.30870952 212.0453185 -89.62890625 213.09765625 C-88.44844727 213.21646652 -88.44844727 213.21646652 -87.24414062 213.337677 C-84.68458988 213.59122036 -82.12383581 213.82772949 -79.5625 214.0625 C-77.76878111 214.23394563 -75.97508015 214.40557884 -74.18139648 214.57739258 C-49.4968409 216.90005476 -24.77504782 218.10987852 0 219 C0 232.86 0 246.72 0 261 C-21.88707339 261 -21.88707339 261 -29.015625 260.6328125 C-29.83648087 260.59397949 -30.65733673 260.55514648 -31.50306702 260.51513672 C-34.08570045 260.39080736 -36.66784493 260.25887364 -39.25 260.125 C-40.14552582 260.07954041 -41.04105164 260.03408081 -41.9637146 259.98724365 C-55.66897094 259.28763038 -69.36264346 258.57774154 -83 257 C-84.13775879 256.86867676 -85.27551758 256.73735352 -86.44775391 256.60205078 C-90.17725297 256.15624486 -93.90113295 255.6780166 -97.625 255.1875 C-98.76364502 255.04650879 -99.90229004 254.90551758 -101.07543945 254.76025391 C-125.02324334 251.40843697 -145.58141448 236.99718932 -160.38964844 218.23974609 C-175 198.18309979 -175 198.18309979 -175 189 C-176.2375 188.938125 -177.475 188.87625 -178.75 188.8125 C-189.33162422 187.59984919 -200.49472336 182.10114188 -207.66015625 174.16015625 C-213.62102585 165.66200688 -213.29733672 154.65179468 -213.23046875 144.68359375 C-213.23001053 143.54648453 -213.22955231 142.40937531 -213.2290802 141.23780823 C-213.22607867 138.85034126 -213.21825606 136.46287587 -213.20581055 134.07543945 C-213.18753323 130.44410171 -213.18530146 126.81301966 -213.18554688 123.18164062 C-213.18063103 120.84895615 -213.17480242 118.51627339 -213.16796875 116.18359375 C-213.16685593 115.1104039 -213.1657431 114.03721405 -213.16459656 112.9315033 C-213.04026464 92.95920444 -213.04026464 92.95920444 -206 85 C-200.14377563 79.3484592 -193.48402474 76.02762819 -186 73 C-185.16984375 72.62488281 -184.3396875 72.24976563 -183.484375 71.86328125 C-180.83132357 70.94138759 -178.78724153 70.84072906 -176 71 C-175.57589844 70.04480469 -175.15179688 69.08960938 -174.71484375 68.10546875 C-163.07777714 42.28667013 -145.08425176 20.31868358 -118 10 C-107.02738104 6.71206647 -96.11530113 5.01750943 -84.75 3.875 C-83.15997284 3.70885631 -81.56996668 3.5425116 -79.97998047 3.37597656 C-75.32207826 2.89477735 -70.66152878 2.44444497 -66 2 C-64.13359863 1.81775879 -64.13359863 1.81775879 -62.22949219 1.63183594 C-41.46171435 -0.3340317 -20.84963338 -0.1510843 0 0 Z " fill="#E6E8EA" transform="translate(257,146)"/>
<path d="M0 0 C2.57045118 0.0054664 5.14073496 -0.00004814 7.71118164 -0.00634766 C9.37459348 -0.00568835 11.03800521 -0.00441025 12.70141602 -0.00244141 C13.83272697 -0.00547775 13.83272697 -0.00547775 14.9868927 -0.00857544 C19.49416417 0.01127521 23.7650343 0.39347265 28.21313477 1.13037109 C22.41174784 8.23549116 15.86923799 14.60055729 9.37719727 21.06396484 C8.13001967 22.30927455 6.88306476 23.55480731 5.63632202 24.80055237 C2.37365372 28.05942475 -0.89200774 31.31528127 -4.1583252 34.57049561 C-7.49857585 37.90046888 -10.83595454 41.23331782 -14.17358398 44.56591797 C-20.70855416 51.09020249 -27.24669354 57.61130105 -33.78686523 64.13037109 C-35.55011593 61.48549505 -36.36529669 59.66292625 -37.28686523 56.69287109 C-38.22414164 53.68238004 -39.12151625 50.82143675 -40.78686523 48.13037109 C-48.54192014 44.32087044 -58.28102787 43.50290041 -66.78686523 45.13037109 C-71.62607977 47.59715733 -74.74449909 51.11146236 -76.78686523 56.13037109 C-77.8485487 61.1509712 -77.94784289 66.0096626 -77.95483398 71.11474609 C-77.95816238 71.97038147 -77.96149078 72.82601685 -77.96492004 73.70758057 C-77.96996574 75.51289333 -77.9723291 77.31821535 -77.97216797 79.12353516 C-77.9743472 81.85774473 -77.99250807 84.59154564 -78.01147461 87.32568359 C-78.54107288 103.72776011 -78.54107288 103.72776011 -71.78686523 118.13037109 C-68.55022213 121.0767323 -65.83258698 121.71086693 -61.53686523 122.31787109 C-59.92038086 122.55570313 -59.92038086 122.55570313 -58.27124023 122.79833984 C-57.45139648 122.90791016 -56.63155273 123.01748047 -55.78686523 123.13037109 C-60.20053097 128.41497379 -64.85508913 133.33193922 -69.73999023 138.18115234 C-70.48142273 138.92116989 -71.22285522 139.66118744 -71.98675537 140.42362976 C-74.33443466 142.76575558 -76.68558066 145.10436524 -79.03686523 147.44287109 C-80.63084708 149.03183125 -82.22459933 150.62102177 -83.81811523 152.21044922 C-87.3086164 155.69115855 -90.80129888 159.16966145 -94.29595947 162.64619446 C-95.46110017 163.80607636 -96.62435096 164.96785682 -97.78686523 166.13037109 C-113.07831802 154.72246187 -123.42080756 141.77906349 -126.39233398 122.47802734 C-126.5225293 121.37330078 -126.65272461 120.26857422 -126.78686523 119.13037109 C-126.87371582 118.42750977 -126.96056641 117.72464844 -127.05004883 117.00048828 C-128.08653556 107.44694626 -128.03051116 97.85358248 -128.03686523 88.25537109 C-128.03753998 87.34195953 -128.03821472 86.42854797 -128.03890991 85.48745728 C-128.00887363 59.91871885 -126.43726538 38.42689 -108.09936523 18.94287109 C-94.26374041 5.67153913 -78.9493005 5.12056474 -60.81494141 3.32543945 C-58.25218017 3.0706366 -55.69044681 2.80689896 -53.12866211 2.54248047 C-35.42739446 0.74918948 -17.78999657 -0.04503358 0 0 Z " fill="#071A43" transform="translate(244.786865234375,187.86962890625)"/>
<path d="M0 0 C14.81376266 -0.26442251 29.28040589 0.29866404 44 2 C39.21830486 7.76930434 34.06339956 13.03029032 28.72167969 18.28076172 C27.31795589 19.66745044 25.91423789 21.05414505 24.51073885 22.44106126 C23.01408397 23.91934756 21.51627898 25.39646142 20.01833344 26.87343979 C16.88664186 29.9626891 13.76220194 33.05920311 10.63946533 36.15750122 C10.11058236 36.68219588 9.58169939 37.20689054 9.03678966 37.74748504 C7.95611546 38.8196572 6.87546458 39.89185285 5.79483652 40.96407151 C-1.46577365 48.16790133 -8.73036031 55.3675089 -16.01757812 62.54443359 C-20.94707807 67.3994308 -25.86398007 72.26680181 -30.76674724 77.14879811 C-33.35654878 79.72665073 -35.95226051 82.29783495 -38.56351471 84.85396957 C-41.47463035 87.703879 -44.3576554 90.58070155 -47.23925781 93.46044922 C-48.10161041 94.29606384 -48.96396301 95.13167847 -49.85244751 95.99261475 C-54.25736364 100.44341719 -56.932763 103.72216212 -57.69349289 110.0431385 C-58.37884682 114.41870653 -61.31686568 117.3348429 -64.375 120.3125 C-70.71673364 124.38932877 -80.12262435 123.80473834 -87.3125 122.3125 C-92.15331483 119.94838113 -95.24933294 117.39779384 -97.8125 112.625 C-99.95571921 106.08254135 -100.15865101 99.66103076 -100.16796875 92.84765625 C-100.17129715 91.98869247 -100.17462555 91.1297287 -100.17805481 90.24473572 C-100.18309318 88.43700695 -100.1854641 86.62926898 -100.18530273 84.8215332 C-100.18749066 82.07422421 -100.20568325 79.32731634 -100.22460938 76.58007812 C-100.22754377 74.81510553 -100.22952826 73.05013104 -100.23046875 71.28515625 C-100.23765427 70.47345474 -100.24483978 69.66175323 -100.25224304 68.82545471 C-100.22423053 61.7451664 -99.65152925 54.98763297 -94.5625 49.625 C-93.66724609 48.65433594 -93.66724609 48.65433594 -92.75390625 47.6640625 C-88.57020197 43.69466823 -85.1638419 43.69416644 -79.6875 43.75 C-78.94048828 43.74226563 -78.19347656 43.73453125 -77.42382812 43.7265625 C-71.54596648 43.74720468 -66.91540583 44.3518601 -62.3125 48.3125 C-58.07532167 53.23678833 -56.85027284 56.52404505 -55 63 C-34.87 42.87 -14.74 22.74 6 2 C4.02 1.67 2.04 1.34 0 1 C0 0.67 0 0.34 0 0 Z " fill="#173064" transform="translate(266,188)"/>
<path d="M0 0 C6.27721216 3.20331961 12.19257614 8.35507216 14.4609375 15.16015625 C15.27402867 24.09254357 14.97428092 31.77517783 9.4609375 39.16015625 C5.99073882 42.16015625 5.99073882 42.16015625 3.4609375 42.16015625 C3.7909375 51.40015625 4.1209375 60.64015625 4.4609375 70.16015625 C6.9153125 70.69640625 9.3696875 71.23265625 11.8984375 71.78515625 C18.2653003 73.31103456 25.03874583 74.99136079 29.4609375 80.16015625 C29.7909375 82.14015625 30.1209375 84.12015625 30.4609375 86.16015625 C5.3809375 86.16015625 -19.6990625 86.16015625 -45.5390625 86.16015625 C-45.5390625 81.16015625 -45.5390625 81.16015625 -44.39453125 79.5 C-36.54218676 72.89814596 -28.64843178 71.2834195 -18.5390625 70.16015625 C-18.5390625 61.25015625 -18.5390625 52.34015625 -18.5390625 43.16015625 C-20.1890625 42.50015625 -21.8390625 41.84015625 -23.5390625 41.16015625 C-25.26953125 39.35546875 -25.26953125 39.35546875 -26.7265625 37.28515625 C-27.21511719 36.60710937 -27.70367187 35.9290625 -28.20703125 35.23046875 C-32.36608946 28.76624338 -32.4839294 22.7692614 -31.5390625 15.16015625 C-28.61745442 7.86133465 -23.25187706 3.95807984 -16.68359375 0.05859375 C-11.5516312 -2.09140878 -5.21402756 -1.72463988 0 0 Z " fill="#3980DC" transform="translate(265.5390625,59.83984375)"/>
<path d="M0 0 C-0.4605683 4.68244434 -1.02029873 9.2601054 -1.9375 13.875 C-7.63837669 45.25125365 -6.6520724 79.44184484 -0.38037109 110.68212891 C0 113 0 113 0 117 C-10.85299087 115.60735958 -23.15975802 110.80841044 -30.4609375 102.296875 C-36.54566252 93.64460705 -36.29878602 82.86784659 -36.23046875 72.68359375 C-36.23001053 71.54648453 -36.22955231 70.40937531 -36.2290802 69.23780823 C-36.22607867 66.85034126 -36.21825606 64.46287587 -36.20581055 62.07543945 C-36.18753323 58.44410171 -36.18530146 54.81301966 -36.18554688 51.18164062 C-36.18063103 48.84895615 -36.17480242 46.51627339 -36.16796875 44.18359375 C-36.16685593 43.1104039 -36.1657431 42.03721405 -36.16459656 40.9315033 C-36.04026464 20.95920444 -36.04026464 20.95920444 -29 13 C-21.29282022 5.56219737 -10.84118427 -0.24091521 0 0 Z " fill="#37BCFE" transform="translate(80,218)"/>
<path d="M0 0 C1.17852539 -0.01740234 1.17852539 -0.01740234 2.38085938 -0.03515625 C8.03261099 -0.00677925 12.3395991 0.89663146 16.671875 4.83984375 C24.39881782 14.81606787 23.22552592 25.48751666 23.1875 37.6875 C23.19330078 39.53118164 23.19330078 39.53118164 23.19921875 41.41210938 C23.17279033 66.45303483 23.17279033 66.45303483 18.0625 73.375 C12.77643339 78.52552644 7.89380156 79.66553987 0.625 79.6875 C-0.65246094 79.70425781 -1.92992187 79.72101563 -3.24609375 79.73828125 C-8.64662521 79.20680038 -12.62996593 77.30212045 -16.1875 73.1875 C-26.6766403 60.12400151 -22.85049724 33.16104306 -21.3125 17.75 C-20.15818796 10.56215623 -17.46861842 6.14576811 -11.796875 1.6953125 C-7.81513266 -0.14325159 -4.33238239 -0.0636595 0 0 Z " fill="#35BAFD" transform="translate(326.9375,231.625)"/>
<path d="M0 0 C1.12051758 -0.01160156 1.12051758 -0.01160156 2.26367188 -0.0234375 C8.14153352 -0.00279532 12.77209417 0.6018601 17.375 4.5625 C24.05665238 12.32766357 23.84095272 20.25672614 23.85546875 30.125 C23.86046135 31.33905518 23.86046135 31.33905518 23.86555481 32.57763672 C23.87057792 34.27505939 23.87296458 35.97249178 23.87280273 37.66992188 C23.8749946 40.24365658 23.89321428 42.8169655 23.91210938 45.390625 C23.91504336 47.05208189 23.91702812 48.71354078 23.91796875 50.375 C23.92515427 51.13151855 23.93233978 51.88803711 23.93974304 52.66748047 C23.90601764 60.68120951 22.86908513 67.88405255 17.6875 74.25 C12.60608848 79.19769016 7.99130353 79.28077282 1.1875 79.4375 C-6.33014132 79.33577278 -10.89925469 77.66324531 -16.3125 72.25 C-20.28353112 64.85566619 -20.46926448 57.29051091 -20.48046875 49.09765625 C-20.48379715 48.23869247 -20.48712555 47.3797287 -20.49055481 46.49473572 C-20.49559318 44.68700695 -20.4979641 42.87926898 -20.49780273 41.0715332 C-20.49999066 38.32422421 -20.51818325 35.57731634 -20.53710938 32.83007812 C-20.54004377 31.06510553 -20.54202826 29.30013104 -20.54296875 27.53515625 C-20.55015427 26.72345474 -20.55733978 25.91175323 -20.56474304 25.07545471 C-20.53673053 17.9951664 -19.96402925 11.23763297 -14.875 5.875 C-14.27816406 5.22789062 -13.68132812 4.58078125 -13.06640625 3.9140625 C-8.88270197 -0.05533177 -5.4763419 -0.05583356 0 0 Z " fill="#35BBFD" transform="translate(186.3125,231.75)"/>
<path d="M0 0 C-4.43539238 5.3083201 -9.11234177 10.25540965 -14.0090332 15.13842773 C-15.17836647 16.31038948 -15.17836647 16.31038948 -16.37132263 17.50602722 C-18.92864557 20.06772423 -21.4895761 22.62577865 -24.05078125 25.18359375 C-25.83357625 26.96706265 -27.6162228 28.75067996 -29.39872742 30.53443909 C-33.12332555 34.26050781 -36.84967101 37.98482017 -40.57739258 41.70776367 C-44.89080524 46.01571148 -49.20057137 50.32728226 -53.50850803 54.64070553 C-57.65813712 58.79540807 -61.81056005 62.94730943 -65.96419334 67.09800911 C-67.73087261 68.86401929 -69.49680384 70.6307781 -71.26198769 72.398283 C-73.71823507 74.85705312 -76.17763582 77.31262359 -78.63793945 79.76733398 C-79.37297699 80.50439575 -80.10801453 81.24145752 -80.86532593 82.00085449 C-81.53116196 82.6638707 -82.19699799 83.3268869 -82.88301086 84.00999451 C-83.46424367 84.59085029 -84.04547647 85.17170607 -84.6443224 85.77016354 C-86 87 -86 87 -87 87 C-87.74875294 60.47878692 -86.3156278 37.00332329 -67.3125 16.8125 C-54.07735777 4.11715965 -40.25617333 3.23978803 -22.75 1.375 C-20.94789063 1.17390625 -20.94789063 1.17390625 -19.109375 0.96875 C-12.69668875 0.27966749 -6.44907427 -0.15223137 0 0 Z " fill="#173064" transform="translate(204,190)"/>
<path d="M0 0 C10.81157903 2.78205904 22.59435246 7.4224405 29.3125 16.83984375 C32.17671438 21.8621641 32.47439671 26.30723945 32 32 C32.66 32 33.32 32 34 32 C34 49.49 34 66.98 34 85 C33.34 85 32.68 85 32 85 C32.0825 86.155 32.165 87.31 32.25 88.5 C32.23922115 94.59005273 29.68292485 98.90909337 25.9375 103.5625 C19.387298 108.997774 12.23983256 113.68706455 4 116 C1.77734375 115.5625 1.77734375 115.5625 0 115 C0.19335938 114.05382812 0.38671875 113.10765625 0.5859375 112.1328125 C0.84934671 110.79695152 1.11234411 109.4610093 1.375 108.125 C1.63023437 106.84882813 1.88546875 105.57265625 2.1484375 104.2578125 C4.68212032 89.50462637 5.3469299 74.91896481 5.31567383 59.97045898 C5.31252107 56.833465 5.33605249 53.69742485 5.36132812 50.56054688 C5.41479142 33.42799192 3.90972613 16.70094951 0 0 Z " fill="#337FE3" transform="translate(435,218)"/>
<path d="M0 0 C2.53354248 1.26677124 2.69801435 2.25629673 3.8125 4.8125 C5.71382362 8.64946716 7.12464851 10.90085127 11 13 C14.9752628 13.90417742 18.9544315 14.50962806 23 15 C18.58633427 20.2846027 13.93177611 25.20156812 9.046875 30.05078125 C7.93472626 31.16080757 7.93472626 31.16080757 6.80010986 32.29325867 C4.45243057 34.63538449 2.10128457 36.97399415 -0.25 39.3125 C-1.84398185 40.90146016 -3.4377341 42.49065068 -5.03125 44.08007812 C-8.52175116 47.56078745 -12.01443364 51.03929036 -15.50909424 54.51582336 C-16.67423494 55.67570526 -17.83748573 56.83748573 -19 58 C-27.19166138 51.88876055 -34.30137395 46.20930706 -39 37 C-38.33846924 36.66444092 -37.67693848 36.32888184 -36.99536133 35.9831543 C-32.83950117 33.23166256 -29.56410669 29.8095996 -26.07421875 26.26953125 C-25.32662796 25.51911057 -24.57903717 24.76868988 -23.80879211 23.99552917 C-21.43027929 21.60585247 -19.05882877 19.20930367 -16.6875 16.8125 C-15.07272703 15.18769236 -13.45749774 13.56333807 -11.84179688 11.93945312 C-7.88922799 7.96487416 -3.94242935 3.98463532 0 0 Z " fill="#173064" transform="translate(166,296)"/>
<path d="M0 0 C7.61696604 0 11.561015 0.70679086 17.02734375 5.94140625 C22.73630175 12.28080133 23.41412485 16.83328363 23.34375 25.33984375 C22.85048699 30.59197381 21.32040293 34.87652288 18 39 C16.96875 39.46664062 15.9375 39.93328125 14.875 40.4140625 C11.34279909 43.59112364 11.49913501 44.6768127 11.1953125 49.296875 C11.14218058 51.78079236 11.11989315 54.2655197 11.125 56.75 C11.104375 58.01972656 11.08375 59.28945312 11.0625 60.59765625 C11.01537474 63.73148577 11.00424686 66.86581905 11 70 C4.4 69.67 -2.2 69.34 -9 69 C-9 61.08 -9 53.16 -9 45 C-6.03 45.33 -3.06 45.66 0 46 C0 30.82 0 15.64 0 0 Z " fill="#307EE3" transform="translate(257,60)"/>
<path d="M0 0 C-25.19588071 12.3004544 -48.15382805 15.64776224 -76 16 C-77.69545959 16.0216925 -77.69545959 16.0216925 -79.4251709 16.04382324 C-95.6183531 16.23042274 -111.80714494 16.18843509 -128 16 C-128 12.7 -128 9.4 -128 6 C-126.44724365 5.98541748 -124.8944873 5.97083496 -123.29467773 5.95581055 C-85.99720294 5.57919463 -49.00470187 4.5060121 -11.96118164 -0.17333984 C-10.95949951 -0.29660645 -9.95781738 -0.41987305 -8.92578125 -0.546875 C-8.06380127 -0.65870117 -7.20182129 -0.77052734 -6.3137207 -0.88574219 C-3.97420416 -1.00127387 -2.22465527 -0.69458289 0 0 Z " fill="#9FADBA" transform="translate(367,401)"/>
<path d="M0 0 C1.07765625 0.01804688 2.1553125 0.03609375 3.265625 0.0546875 C4.49539063 0.08949219 4.49539063 0.08949219 5.75 0.125 C5.75 0.455 5.75 0.785 5.75 1.125 C3.77 1.125 1.79 1.125 -0.25 1.125 C-0.25 16.305 -0.25 31.485 -0.25 47.125 C-10.10708771 46.02976803 -13.73886265 44.43531319 -19.92578125 37.15234375 C-24.20216468 30.70765322 -24.46285214 23.6186936 -23.25 16.125 C-20.59892935 9.6186752 -16.13068976 5.71875486 -10.25 2.125 C-9.34894531 1.57005859 -9.34894531 1.57005859 -8.4296875 1.00390625 C-5.53165457 -0.16465542 -3.11249932 -0.06766303 0 0 Z " fill="#38BDFE" transform="translate(257.25,58.875)"/>
<path d="M0 0 C0 8.58 0 17.16 0 26 C-6.6 25.67 -13.2 25.34 -20 25 C-20 17.08 -20 9.16 -20 1 C-12.6875 1.0625 -12.6875 1.0625 -10.3972168 1.09008789 C-6.75505536 1.10520869 -3.5106086 0 0 0 Z " fill="#01052C" transform="translate(268,104)"/>
<path d="M0 0 C0 4.95 0 9.9 0 15 C-12.34858538 15.71511973 -24.63051353 16.14420386 -37 16 C-37.34284511 11.49730092 -37.34284511 11.49730092 -35.85546875 9.33984375 C-25.33758676 0.49694063 -13.19769942 -0.14828876 0 0 Z " fill="#38BDFE" transform="translate(257,130)"/>
<path d="M0 0 C3.3 0.33 6.6 0.66 10 1 C10 8.59 10 16.18 10 24 C6.7 24 3.4 24 0 24 C0 16.08 0 8.16 0 0 Z " fill="#16193B" transform="translate(248,105)"/>
</svg>
